<svg xmlns="http://www.w3.org/2000/svg" viewBox="0 0 1600 900" fill="none"><defs><linearGradient id="sky" x1="0" y1="0" x2="0" y2="1"><stop stop-color="#030706"/><stop offset=".55" stop-color="#0B1512"/><stop offset="1" stop-color="#17201C"/></linearGradient><linearGradient id="sea" x1="0" y1="0" x2="1" y2="0"><stop stop-color="#07100D"/><stop offset=".5" stop-color="#15231E"/><stop offset="1" stop-color="#080D0B"/></linearGradient><filter id="g"><feGaussianBlur stdDeviation="8" result="b"/><feMerge><feMergeNode in="b"/><feMergeNode in="SourceGraphic"/></feMerge></filter></defs><rect width="1600" height="900" fill="url(#sky)"/><rect y="572" width="1600" height="328" fill="url(#sea)"/><path d="M0 574h1600" stroke="#62766D" stroke-opacity=".35"/><g opacity=".88" stroke="#77857F" stroke-width="5"><path d="M250 555V210h45v345M295 230h218l-45 36H294M410 265l-7 289M610 555V160h48v395M657 182h250l-52 38H656M790 220l-7 334M1050 555V234h42v321M1092 253h190l-42 33h-148M1194 286l-7 269"/></g><g fill="#202A26" stroke="#53655D"><rect x="140" y="535" width="380" height="115"/><rect x="548" y="515" width="370" height="135"/><rect x="945" y="525" width="390" height="125"/></g><g fill="#22302B" stroke="#657970" stroke-opacity=".55"><rect x="180" y="484" width="105" height="48"/><rect x="295" y="484" width="105" height="48"/><rect x="410" y="484" width="105" height="48"/><rect x="585" y="462" width="105" height="48"/><rect x="700" y="462" width="105" height="48"/><rect x="815" y="462" width="95" height="48"/><rect x="980" y="474" width="105" height="48"/><rect x="1095" y="474" width="105" height="48"/><rect x="1210" y="474" width="105" height="48"/></g><path d="M75 690h1240l145 63H224L75 690Z" fill="#101713" stroke="#4B5B54"/><path d="M165 679c224 5 397-34 568-54 191-23 329 27 474-12 123-33 215-22 316-10" stroke="#73E3B7" stroke-width="3" filter="url(#g)"/><path d="M190 717c215 3 363-11 520-22 212-14 347 29 507 7 111-15 202-6 286 2" stroke="#C5A86A" stroke-width="1.5" opacity=".5"/><g fill="#73E3B7"><circle cx="348" cy="666" r="7"/><circle cx="716" cy="627" r="7"/><circle cx="1066" cy="635" r="7"/><circle cx="1390" cy="605" r="7"/></g><g opacity=".72"><path d="M109 795h346l90 48H203l-94-48Z" fill="#28332F"/><path d="M622 763h376l95 55H710l-88-55Z" fill="#202B27"/><path d="M1165 745h281l70 39h-284l-67-39Z" fill="#26312D"/></g><g font-family="Arial,sans-serif"><text x="90" y="110" fill="#E3E9E5" font-size="28" letter-spacing="4">CROSS-BORDER CUSTODY</text><text x="91" y="146" fill="#7F9289" font-size="13" letter-spacing="3">ORIGIN · PORT · VESSEL · DESTINATION · RECEIPT</text><text x="1262" y="110" fill="#C2A66A" font-size="13" letter-spacing="3">CHINA → GCC</text><text x="91" y="842" fill="#72857C" font-size="12" letter-spacing="3">ILLUSTRATIVE CORRIDOR VISUAL</text></g></svg>